<?xml version="1.0" encoding="utf-8"?>
<!-- Generator: Adobe Illustrator 22.1.0, SVG Export Plug-In . SVG Version: 6.00 Build 0)  -->
<svg version="1.1" id="Ebene_1" xmlns="http://www.w3.org/2000/svg" xmlns:xlink="http://www.w3.org/1999/xlink" x="0px" y="0px"
	 viewBox="0 0 486 268" style="enable-background:new 0 0 486 268;" xml:space="preserve">
<style type="text/css">
	.st0{fill-rule:evenodd;clip-rule:evenodd;fill:#E8EEF7;}
	.st1{fill-rule:evenodd;clip-rule:evenodd;fill:#FBD7BB;}
	.st2{fill-rule:evenodd;clip-rule:evenodd;fill:#B7DDE8;}
	.st3{fill-rule:evenodd;clip-rule:evenodd;fill:#BFBFBF;}
	.st4{fill-rule:evenodd;clip-rule:evenodd;fill:#FFFFFF;}
	.st5{fill:#BFBFBF;}
	.st6{fill:#8DB1E2;}
	.st7{fill:#548BD4;}
	.st8{fill:#EA700D;}
	.st9{fill:#1F477D;}
	.st10{fill-rule:evenodd;clip-rule:evenodd;fill:#EAEFF5;}
	.st11{fill:#C05046;}
	.st12{fill:#C4D6A0;}
	.st13{fill-rule:evenodd;clip-rule:evenodd;fill:#C05046;}
</style>
<polygon class="st0" points="200.1651,242.9272 402.4451,70.9172 140.3551,113.4772 "/>
<polygon class="st1" points="223.3351,76.1372 96.2251,249.6272 282.0551,141.3472 "/>
<path class="st2" d="M168.7651,136.5372l122.42,72.83l-134.48-46.97L168.7651,136.5372z M182.0551,119.2272l110.3,90.14
	l-90.13-110.31L182.0551,119.2272z M219.7751,86.9372l72.83,122.43l-46.97-134.48L219.7751,86.9372z"/>
<polygon class="st3" points="267.0251,69.7672 293.5851,209.7172 295.4351,67.2772 "/>
<path class="st4" d="M408.1651,75.7672l10.27-5.35c1.39-0.73,1.93-2.44,1.21-3.83c-0.01,0-0.01-0.01-0.02-0.02l-1.76-3.3
	c-0.64-1.21-2.07-1.79-3.38-1.36l-11.34,3.72c-1.49,0.49-2.3,2.09-1.81,3.58c0.06,0.18,0.14,0.36,0.24,0.53l2.83,4.92
	C405.1551,75.9772,406.8251,76.4672,408.1651,75.7672z"/>
<path class="st5" d="M406.854,77.2169c-1.374,0-2.6992-0.7217-3.4277-2.0039l-2.8271-4.915
	c-0.1328-0.2266-0.2461-0.4775-0.332-0.7378c-0.3311-1.0078-0.251-2.082,0.2266-3.0259c0.4766-0.9434,1.2939-1.645,2.2998-1.9761
	l11.3408-3.7197c1.834-0.6021,3.8242,0.1978,4.7246,1.9028l1.709,3.2026c0.0283,0.04,0.0537,0.082,0.0762,0.126
	c1.001,1.9321,0.2441,4.3291-1.6855,5.3433l-10.2734,5.3516C408.0981,77.0709,407.4712,77.2169,406.854,77.2169z M415.3716,62.8903
	c-0.1777,0-0.3584,0.0278-0.5361,0.0859l-11.3398,3.7197c-0.8965,0.2949-1.3857,1.2637-1.0918,2.1597
	c0.0361,0.1084,0.084,0.2144,0.1416,0.3125l2.835,4.9282c0.4492,0.7915,1.4629,1.0903,2.2646,0.6733h0.001l10.2695-5.3501
	c0.8086-0.4248,1.1426-1.4136,0.7686-2.2358c-0.0176-0.0283-0.0352-0.0571-0.0508-0.0869l-1.7607-3.2998
	C416.5698,63.2252,415.9868,62.8903,415.3716,62.8903z"/>
<path class="st4" d="M434.2751,123.6572h-14.81c-3.01,0-5.89-1.2-8.02-3.33l-6.8199-6.82c-1.8-1.79-2.81-4.23-2.81-6.76v-0.23
	c0-2.39,0.96-4.69,2.65-6.38s3.98-2.64,6.38-2.64h31.87c2.58,0,5.04,1.02,6.86,2.84l0.1801,0.18c1.7,1.7,2.66,4.01,2.66,6.42
	s-0.98,4.71-2.73,6.36l-7.59,7.23C439.9851,122.5372,437.1851,123.6572,434.2751,123.6572z"/>
<path class="st5" d="M434.2749,124.7824h-14.8096c-3.3252,0-6.4561-1.2998-8.8164-3.6597l-6.8193-6.8203
	c-1.9941-1.9829-3.1396-4.7373-3.1396-7.5552v-0.23c0-2.667,1.0859-5.2822,2.9805-7.1753c1.9141-1.915,4.4619-2.9697,7.1748-2.9697
	h31.8701c2.8936,0,5.6113,1.1255,7.6553,3.1694l0.1787,0.1792c1.9014,1.9004,2.9912,4.5303,2.9912,7.2163
	c0,2.7144-1.124,5.3306-3.084,7.1782l-7.585,7.2261C440.5415,123.5602,437.4888,124.7824,434.2749,124.7824z M410.8452,98.6222
	c-2.1113,0-4.0947,0.8208-5.584,2.3105c-1.4756,1.4746-2.3213,3.5103-2.3213,5.5845v0.23c0,2.2231,0.9033,4.396,2.4785,5.9619
	l6.8223,6.8228c1.9346,1.9351,4.5,3.0005,7.2246,3.0005h14.8096c2.6338,0,5.1357-1.0015,7.0439-2.8198l7.5898-7.23
	c1.5156-1.4282,2.3818-3.4482,2.3818-5.5454c0-2.0938-0.8496-4.1436-2.3301-5.6245l-0.1797-0.1792
	c-1.6201-1.6196-3.7734-2.5112-6.0654-2.5112H410.8452z"/>
<path class="st5" d="M401.8149,106.942h-1.7598c-0.292,0-0.5723,0.1138-0.7822,0.3169l-2.467,2.388l3.1047-3.1048h1.9043
	c0.6211,0,1.125-0.5039,1.125-1.125s-0.5039-1.125-1.125-1.125h-2.3701c-0.2988,0-0.585,0.1187-0.7959,0.3296l-12.9502,12.9502
	c-0.0125,0.0125-0.0163,0.0294-0.028,0.0422c-0.0875,0.0957-0.1638,0.2017-0.2142,0.3233
	c-0.0526,0.1275-0.0767,0.2627-0.0805,0.3985c-0.0003,0.011-0.0063,0.0203-0.0063,0.0314v2.9097c0,0.6211,0.5039,1.125,1.125,1.125
	h2.6406c0.6211,0,1.125-0.5039,1.125-1.125v-2.1631l10.25-9.9219h1.3047c0.6211,0,1.125-0.5039,1.125-1.125
	S402.436,106.942,401.8149,106.942z M388.0103,120.152h-0.3906v-1.3184l0.4403-0.4404c-0.0186,0.0812-0.0497,0.1594-0.0497,0.2441
	V120.152z"/>
<path class="st5" d="M468.9941,118.336c-0.0038-0.1358-0.0279-0.271-0.0805-0.3985c-0.0504-0.1216-0.1268-0.2276-0.2142-0.3233
	c-0.0117-0.0129-0.0156-0.0298-0.028-0.0422l-12.9502-12.9502c-0.2109-0.2109-0.4971-0.3296-0.7959-0.3296h-2.3799
	c-0.6211,0-1.125,0.5039-1.125,1.125s0.5039,1.125,1.125,1.125h1.9141l3.1047,3.1048l-2.467-2.388
	c-0.21-0.2031-0.4902-0.3169-0.7822-0.3169h-1.7695c-0.6211,0-1.125,0.5039-1.125,1.125s0.5039,1.125,1.125,1.125h1.3145
	l10.25,9.9219v2.1631c0,0.6211,0.5039,1.125,1.125,1.125h2.6406c0.6211,0,1.125-0.5039,1.125-1.125v-2.9097
	C469.0005,118.3562,468.9944,118.347,468.9941,118.336z M466.3599,120.152v-1.5146c0-0.0847-0.0311-0.1628-0.0497-0.2441
	l0.4403,0.4404v1.3184H466.3599z"/>
<path class="st5" d="M387.9448,143.2423c-6.2998,0-11.4248-5.1792-11.4248-11.5449c0-6.3662,5.125-11.5454,11.4248-11.5454
	c6.3057,0,11.4355,5.1792,11.4355,11.5454C399.3804,138.0631,394.2505,143.2423,387.9448,143.2423z M387.9448,122.402
	c-5.0586,0-9.1748,4.1699-9.1748,9.2954c0,5.125,4.1162,9.2949,9.1748,9.2949c5.0645,0,9.1855-4.1699,9.1855-9.2949
	C397.1304,126.5719,393.0093,122.402,387.9448,122.402z"/>
<path class="st4" d="M387.9451,121.2772c-5.6899,0-10.3,4.66-10.3,10.42c0,5.75,4.61,10.42,10.3,10.42
	c5.69,0,10.3101-4.67,10.3101-10.42C398.2551,125.9372,393.6351,121.2772,387.9451,121.2772z M388.0651,134.4672
	c-1.52,0-2.76-1.25-2.76-2.79c0-1.54,1.24-2.79,2.76-2.79c1.53,0,2.7599,1.25,2.7599,2.79
	C390.8251,133.2172,389.5951,134.4672,388.0651,134.4672z"/>
<path class="st5" d="M388.0649,135.5919c-2.1416,0-3.8848-1.7559-3.8848-3.9146s1.7432-3.915,3.8848-3.915
	s3.8848,1.7563,3.8848,3.915S390.2065,135.5919,388.0649,135.5919z M388.0649,130.0123c-0.9014,0-1.6348,0.7471-1.6348,1.665
	s0.7334,1.6646,1.6348,1.6646s1.6348-0.7466,1.6348-1.6646S388.9663,130.0123,388.0649,130.0123z"/>
<path class="st5" d="M466.5552,143.2521c-6.3057,0-11.4355-5.1792-11.4355-11.5449c0-6.3603,5.1299-11.5351,11.4355-11.5351
	c6.2998,0,11.4248,5.1748,11.4248,11.5351C477.98,138.0729,472.855,143.2521,466.5552,143.2521z M466.5552,122.422
	c-5.0645,0-9.1855,4.1655-9.1855,9.2851c0,5.125,4.1211,9.2949,9.1855,9.2949c5.0586,0,9.1748-4.1699,9.1748-9.2949
	C475.73,126.5875,471.6138,122.422,466.5552,122.422z"/>
<path class="st4" d="M466.5551,121.2971c-5.69,0-10.31,4.66-10.31,10.41c0,5.76,4.62,10.42,10.31,10.42s10.3-4.66,10.3-10.42
	C476.8551,125.9572,472.2451,121.2971,466.5551,121.2971z M466.6751,134.4871c-1.53,0-2.76-1.25-2.76-2.79c0-1.55,1.23-2.8,2.76-2.8
	c1.52,0,2.76,1.25,2.76,2.8C469.4351,133.2371,468.1951,134.4871,466.6751,134.4871z"/>
<path class="st5" d="M466.6753,135.612c-2.1416,0-3.8848-1.7559-3.8848-3.9146c0-2.1646,1.7432-3.9253,3.8848-3.9253
	s3.8848,1.7607,3.8848,3.9253C470.5601,133.8561,468.8169,135.612,466.6753,135.612z M466.6753,130.0221
	c-0.9014,0-1.6348,0.7515-1.6348,1.6753c0,0.918,0.7334,1.6646,1.6348,1.6646s1.6348-0.7466,1.6348-1.6646
	C468.3101,130.7736,467.5767,130.0221,466.6753,130.0221z"/>
<path class="st4" d="M410.4051,75.9972c0,0.93,0.76,1.68,1.69,1.68s1.68-0.75,1.68-1.68v-7.2c0-0.93-0.75-1.69-1.68-1.69
	s-1.69,0.76-1.69,1.69V75.9972z"/>
<path class="st5" d="M412.0952,78.8024c-1.5527,0-2.8154-1.2583-2.8154-2.8052V68.797c0-1.5522,1.2627-2.8149,2.8154-2.8149
	c1.5469,0,2.8047,1.2627,2.8047,2.8149v7.2002C414.8999,77.5441,413.6421,78.8024,412.0952,78.8024z M412.0952,68.2321
	c-0.3066,0-0.5654,0.2588-0.5654,0.5649v7.2002c0,0.3062,0.2539,0.5552,0.5654,0.5552s0.5547-0.2437,0.5547-0.5552V68.797
	C412.6499,68.4855,412.4009,68.2321,412.0952,68.2321z"/>
<path class="st5" d="M416.7974,77.8986c0.0664-0.3306-0.0186-0.6733-0.2324-0.9341s-0.5332-0.4121-0.8701-0.4121h-7.2695
	c-0.038,0-0.07,0.0179-0.107,0.0216c-0.0386,0.0039-0.0748-0.0077-0.1137,0.0004c-0.0386,0.0077-0.0677,0.0323-0.1045,0.0437
	c-0.0739,0.0227-0.1414,0.0504-0.2079,0.087c-0.0636,0.0349-0.1207,0.0726-0.1755,0.1183c-0.0553,0.0459-0.103,0.0945-0.1486,0.1501
	c-0.0463,0.0564-0.0853,0.1135-0.1199,0.1778c-0.0336,0.062-0.0591,0.1246-0.0807,0.1929
	c-0.0232,0.0729-0.0371,0.1451-0.0449,0.2225c-0.0039,0.0382-0.0223,0.0714-0.0223,0.1106c0,0.0382,0.0181,0.0706,0.0218,0.1078
	c0.0036,0.0381-0.0079,0.0741-0.0003,0.1124l1.958,9.8021v9.7975c0,0.6211,0.5039,1.125,1.125,1.125s1.125-0.5039,1.125-1.125
	v-9.9102c0-0.0382-0.0181-0.0706-0.0218-0.1078c-0.0036-0.0381,0.0079-0.0741,0.0003-0.1124l-1.7108-8.5645h4.5242l-1.7188,8.5635
	c-0.0076,0.0375,0.0037,0.0727,0,0.1099c-0.004,0.0384-0.0225,0.0718-0.0225,0.1113v9.9102c0,0.6211,0.5039,1.125,1.125,1.125
	s1.125-0.5039,1.125-1.125v-9.8008L416.7974,77.8986z"/>
<path class="st6" d="M450.2251,108.8771h-45.9502c-1.2422,0-2.25-1.0073-2.25-2.25s1.0078-2.25,2.25-2.25h45.9502
	c1.2422,0,2.25,1.0073,2.25,2.25S451.4673,108.8771,450.2251,108.8771z"/>
<rect x="2.0552" y="142.8571" class="st7" width="198.4199" height="10"/>
<rect x="200.4751" y="142.8571" class="st8" width="283.4697" height="10"/>
<rect x="196.4751" y="39.2873" class="st9" width="8" height="204.3096"/>
<path class="st9" d="M223.3828,136.5773h-8.2324V105.464h7.6465v4.4238c1.3081-2.0894,2.4854-3.4663,3.5303-4.1309
	c1.0444-0.6636,2.231-0.9961,3.5596-0.9961c1.875,0,3.6812,0.5181,5.4199,1.5527l-2.5488,7.1777
	c-1.3872-0.8979-2.6763-1.3477-3.8672-1.3477c-1.1528,0-2.1289,0.3179-2.9297,0.9521c-0.8013,0.6348-1.4312,1.7827-1.8896,3.4424
	c-0.459,1.6602-0.6885,5.1372-0.6885,10.4297V136.5773z M265.981,114.6632l-8.1152,1.4648
	c-0.2734-1.6211-0.8945-2.8418-1.8613-3.6621s-2.2207-1.2305-3.7642-1.2305c-2.0508,0-3.687,0.7085-4.9072,2.124
	c-1.2207,1.4165-1.8311,3.7842-1.8311,7.1045c0,3.6914,0.6196,6.2988,1.8604,7.8223c1.2402,1.5234,2.9048,2.2852,4.9951,2.2852
	c1.563,0,2.8423-0.4438,3.8384-1.333c0.9961-0.8887,1.6992-2.417,2.1094-4.585l8.0859,1.377
	c-0.8398,3.7109-2.4512,6.5142-4.834,8.4082c-2.3828,1.8945-5.5762,2.8418-9.5806,2.8418c-4.5513,0-8.1787-1.4355-10.8838-4.3066
	c-2.7056-2.8711-4.0576-6.8452-4.0576-11.9238c0-5.1367,1.3574-9.1353,4.0723-11.9971c2.7144-2.8608,6.3867-4.292,11.0156-4.292
	c3.7896,0,6.8013,0.8159,9.0376,2.4463C263.397,108.8385,265.0044,111.3234,265.981,114.6632z M280.4233,93.6281v15.791
	c2.6563-3.1055,5.8301-4.6582,9.5215-4.6582c1.8945,0,3.6035,0.3516,5.127,1.0547s2.6709,1.6021,3.4424,2.6953
	c0.7715,1.0942,1.2988,2.3052,1.582,3.6328c0.2832,1.3286,0.4248,3.3887,0.4248,6.1816v18.2519h-8.2324v-16.4355
	c0-3.2617-0.1563-5.332-0.4688-6.2109s-0.8643-1.5767-1.6553-2.0947c-0.791-0.5171-1.7822-0.7764-2.9736-0.7764
	c-1.3672,0-2.5879,0.3325-3.6621,0.9961c-1.0742,0.6646-1.8604,1.6655-2.3584,3.0029c-0.498,1.3379-0.7471,3.3154-0.7471,5.9326
	v15.5859h-8.2324V93.6281H280.4233z M326.8882,126.6749l8.2031,1.3769c-1.0547,3.0078-2.7197,5.2983-4.9951,6.8701
	c-2.2754,1.5723-5.1221,2.3584-8.54,2.3584c-5.4102,0-9.4141-1.7676-12.0117-5.3027c-2.0508-2.8315-3.0762-6.4058-3.0762-10.7226
	c0-5.1563,1.3477-9.1938,4.043-12.1143c2.6953-2.9194,6.1035-4.3799,10.2246-4.3799c4.6289,0,8.2813,1.5288,10.957,4.585
	c2.6758,3.0571,3.9551,7.7393,3.8379,14.0479h-20.625c0.0586,2.4419,0.7227,4.3408,1.9922,5.6982
	c1.2695,1.3579,2.8516,2.0361,4.7461,2.0361c1.2891,0,2.373-0.3516,3.252-1.0547S326.439,128.2379,326.8882,126.6749z
	 M327.3569,118.3546c-0.0586-2.3828-0.6738-4.1938-1.8457-5.4346c-1.1719-1.2397-2.5977-1.8604-4.2773-1.8604
	c-1.7969,0-3.2813,0.6548-4.4531,1.9629c-1.1719,1.3086-1.748,3.0864-1.7285,5.332H327.3569z M339.3394,127.7003l8.2617-1.2598
	c0.3516,1.6016,1.0645,2.8174,2.1387,3.6475c1.0742,0.8306,2.5781,1.2451,4.5117,1.2451c2.1289,0,3.7305-0.3906,4.8047-1.1719
	c0.7227-0.5464,1.084-1.2788,1.084-2.1973c0-0.625-0.1953-1.1426-0.5859-1.5527c-0.4102-0.3906-1.3281-0.7515-2.7539-1.084
	c-6.6406-1.4648-10.8496-2.8022-12.627-4.0137c-2.4609-1.6797-3.6914-4.0137-3.6914-7.002c0-2.6953,1.0645-4.9604,3.1934-6.7969
	c2.1289-1.8354,5.4297-2.7539,9.9023-2.7539c4.2578,0,7.4219,0.6938,9.4922,2.0801c2.0703,1.3872,3.4961,3.438,4.2773,6.1523
	l-7.7637,1.4355c-0.332-1.2104-0.9619-2.1387-1.8896-2.7832s-2.251-0.9668-3.9697-0.9668c-2.168,0-3.7207,0.3032-4.6582,0.9082
	c-0.625,0.4302-0.9375,0.9868-0.9375,1.6699c0,0.5859,0.2734,1.084,0.8203,1.4941c0.7422,0.5469,3.3057,1.3184,7.6904,2.3145
	s7.4463,2.2168,9.1846,3.6621c1.7188,1.4648,2.5781,3.5059,2.5781,6.123c0,2.852-1.1914,5.3027-3.5742,7.3535
	s-5.9082,3.0762-10.5762,3.0762c-4.2383,0-7.5928-0.8594-10.0635-2.5781C341.7173,132.984,340.1011,130.6496,339.3394,127.7003z"/>
<path class="st5" d="M84.4653,242.2521H51.0552h-22.27c-0.0706,0-0.1321,0.0278-0.1991,0.0402
	c-0.0679,0.0123-0.136,0.0085-0.2028,0.034l-16.9736,6.4871l-2.7412-4.1785c-0.9688-1.4922-2.6074-2.3828-4.3833-2.3828
	c-1.8501,0-3.355,1.5049-3.355,3.3555v18.2197c0,1.8496,1.5049,3.3545,3.355,3.3545c1.7725,0,3.4102-0.8848,4.3809-2.3672
	l2.7442-4.1841l16.9741,6.4771c0.1318,0.0508,0.2671,0.0742,0.4009,0.0742h22.27h33.4102c6.7573,0,12.2549-5.5918,12.2549-12.4649
	C96.7202,247.8439,91.2227,242.2521,84.4653,242.2521z M84.4653,264.9318H51.0552H28.9915l-17.6253-6.7256
	c-0.0331-0.0128-0.0672-0.0076-0.1007-0.017c-0.0745-0.0209-0.1464-0.0323-0.2224-0.0375c-0.0723-0.0051-0.141-0.0062-0.2119,0.0026
	c-0.0713,0.0087-0.1372,0.0258-0.2056,0.0479c-0.069,0.0223-0.1331,0.0472-0.1966,0.0823
	c-0.0626,0.0342-0.1175,0.0754-0.1733,0.1218c-0.058,0.0482-0.1094,0.0989-0.1574,0.1588c-0.0225,0.0279-0.0539,0.0441-0.074,0.0746
	l-3.2402,4.9414c-0.5542,0.8457-1.4883,1.3506-2.499,1.3506c-0.6094,0-1.105-0.4951-1.105-1.1045v-18.2197
	c0-0.6094,0.4956-1.1055,1.105-1.1055c1.0112,0,1.9443,0.5078,2.499,1.3623l3.2402,4.9404c0.0087,0.0132,0.023,0.0197,0.0322,0.0325
	c0.079,0.1105,0.1703,0.2088,0.2799,0.2826c0.0082,0.0055,0.0178,0.0072,0.0262,0.0125c0.1024,0.0651,0.2145,0.1099,0.3323,0.1393
	c0.0412,0.0103,0.0815,0.0131,0.1236,0.0187c0.0492,0.0067,0.0966,0.0222,0.1467,0.0222c0.0344,0,0.0687-0.0159,0.1032-0.019
	c0.065-0.0059,0.1263-0.0176,0.1901-0.0352c0.0361-0.0098,0.0728-0.0063,0.1085-0.02l17.6256-6.7363h22.0624h33.4102
	c5.5166,0,10.0049,4.582,10.0049,10.2148C94.4702,260.3498,89.9819,264.9318,84.4653,264.9318z"/>
<path class="st6" d="M3.665,256.9767c-1.2422,0-2.25-1.0069-2.25-2.25c0-1.2422,1.0073-2.25,2.2495-2.25l89.1006-0.0098
	c1.2422,0,2.25,1.0068,2.25,2.25c0,1.2422-1.0073,2.25-2.2495,2.25L3.665,256.9767z"/>
<path class="st4" d="M294.0251,265.1372h73.7c1.56,0,2.83-1.27,2.83-2.83l0,0v-50.11c0-1.56-1.27-2.83-2.83-2.83h-73.7
	c-1.57,0-2.84,1.27-2.84,2.83v50.11C291.1851,263.8672,292.4551,265.1372,294.0251,265.1372z"/>
<path class="st5" d="M367.7251,266.2619h-73.7002c-2.1865,0-3.9648-1.7744-3.9648-3.9551v-50.1094
	c0-2.1807,1.7783-3.9551,3.9648-3.9551h73.7002c2.1807,0,3.9551,1.7744,3.9551,3.9551v50.1094
	C371.6802,264.4875,369.9058,266.2619,367.7251,266.2619z M294.0249,210.4923c-0.9453,0-1.7148,0.7646-1.7148,1.7051v50.1094
	c0,0.9404,0.7695,1.7051,1.7148,1.7051h73.7002c0.9404,0,1.7051-0.7646,1.7051-1.7051v-50.1094
	c0-0.9404-0.7646-1.7051-1.7051-1.7051H294.0249z"/>
<path class="st10" d="M300.6351,251.8872h60.47c1.57,0,2.84-1.27,2.84-2.84l0,0v-31.78c0-1.56-1.27-2.83-2.84-2.83h-60.47
	c-1.56,0-2.83,1.27-2.83,2.83v31.78C297.8051,250.6172,299.0751,251.8872,300.6351,251.8872z"/>
<path class="st5" d="M361.105,253.0119h-60.4697c-2.1807,0-3.9551-1.7783-3.9551-3.9648v-31.7803
	c0-2.1807,1.7744-3.9541,3.9551-3.9541h60.4697c2.1865,0,3.9648,1.7734,3.9648,3.9541v31.7803
	C365.0698,251.2335,363.2915,253.0119,361.105,253.0119z M300.6353,215.5626c-0.9404,0-1.7051,0.7646-1.7051,1.7041v31.7803
	c0,0.9453,0.7646,1.7148,1.7051,1.7148h60.4697c0.9453,0,1.7148-0.7695,1.7148-1.7148v-31.7803
	c0-0.9395-0.7695-1.7041-1.7148-1.7041H300.6353z"/>
<path class="st11" d="M300.4849,262.4621c-2.1035,0-3.8145-1.7383-3.8145-3.875c0-2.1309,1.7109-3.8652,3.8145-3.8652
	s3.8154,1.7344,3.8154,3.8652C304.3003,260.7238,302.5884,262.4621,300.4849,262.4621z"/>
<path class="st11" d="M309.8853,262.4621c-2.1035,0-3.8154-1.7383-3.8154-3.875c0-2.1309,1.7119-3.8652,3.8154-3.8652
	c2.0977,0,3.8047,1.7344,3.8047,3.8652C313.6899,260.7238,311.9829,262.4621,309.8853,262.4621z"/>
<path class="st11" d="M319.4351,262.4621c-2.0977,0-3.8047-1.7383-3.8047-3.875c0-2.1309,1.707-3.8652,3.8047-3.8652
	c2.1035,0,3.8154,1.7344,3.8154,3.8652C323.2505,260.7238,321.5386,262.4621,319.4351,262.4621z"/>
<path class="st12" d="M351.2446,262.4621c-2.1035,0-3.8145-1.7383-3.8145-3.875c0-2.1309,1.7109-3.8652,3.8145-3.8652
	s3.8154,1.7344,3.8154,3.8652C355.0601,260.7238,353.3481,262.4621,351.2446,262.4621z"/>
<path class="st12" d="M360.5454,262.4621c-2.1035,0-3.8154-1.7383-3.8154-3.875c0-2.1309,1.7119-3.8652,3.8154-3.8652
	c2.0977,0,3.8047,1.7344,3.8047,3.8652C364.3501,260.7238,362.6431,262.4621,360.5454,262.4621z"/>
<path class="st13" d="M378.3751,78.5371l4.6762-2.834c-16.1255-25.2179-31.0665-43.809-45.629-56.7538
	C327.313,9.9635,318.5288,4.9049,306.0034,7.4567c-23.1328,4.7256-59.771,36.3623-89.105,63.3965
	c-58.4117,53.8218-95.626,95.5557-139.6381,148.9825l4.2648,3.4915l-22.78,14.38l9.6-25.17l4.2722,3.4974
	c43.1028-52.3181,81.8159-95.7835,140.2153-149.5936c31.7627-29.2725,67.5293-59.8701,91.9717-64.8633
	c15.8096-3.2158,26.9346,4.292,36.6045,12.8872c15.0034,13.3365,30.3181,32.3761,46.7752,58.1276l4.7612-2.8854l5.96,26.27
	L378.3751,78.5371z M404.6382,224.924c-0.9785-0.7676-2.3936-0.5977-3.1592,0.3799c-0.9189,1.1699-1.8457,2.3145-2.79,3.4658
	c-0.7881,0.9619-0.6475,2.3789,0.3135,3.167c0.4189,0.3428,0.9238,0.5098,1.4258,0.5098c0.6504,0,1.2959-0.2813,1.7412-0.8232
	c0.9639-1.1768,1.9102-2.3447,2.8486-3.54C405.7856,227.1056,405.6157,225.6915,404.6382,224.924z M394.45,241.1708l3.0151,4.2464
	l-21.24,6.47l13.11-17.92l2.3929,3.3701c0.4213-0.5377,0.8384-1.0661,1.2481-1.5793c0.7754-0.9707,2.1924-1.127,3.1631-0.3525
	c0.9697,0.7764,1.1279,2.1924,0.3525,3.1631C395.8282,239.3974,395.1448,240.2711,394.45,241.1708z M412.8735,216.7833
	c-0.7939,1.3086-1.623,2.6133-2.4629,3.877c-0.4336,0.6523-1.1475,1.0049-1.876,1.0049c-0.4277,0-0.8604-0.1211-1.2432-0.376
	c-1.0352-0.6875-1.3164-2.084-0.6289-3.1191c0.8057-1.2129,1.6016-2.4658,2.3652-3.7227c0.6445-1.0625,2.0303-1.3984,3.0908-0.7549
	C413.1802,214.3371,413.519,215.7208,412.8735,216.7833z M423.978,150.5426c0.3818,1.522,0.7314,3.0225,1.0391,4.46
	c0.2598,1.2153-0.5146,2.4111-1.7295,2.6709c-0.1582,0.0342-0.3174,0.0503-0.4727,0.0503c-1.0391,0-1.9727-0.7231-2.1982-1.7798
	c-0.2969-1.3857-0.6338-2.8345-1.0039-4.3057c-0.3027-1.2051,0.4297-2.4272,1.6348-2.73
	C422.4468,148.6037,423.6743,149.3366,423.978,150.5426z M426.5396,164.0851c0.1826,1.5576,0.3174,3.1113,0.4023,4.6191
	c0.0703,1.2402-0.8789,2.3027-2.1201,2.3721c-0.043,0.0029-0.085,0.0039-0.1279,0.0039c-1.1846,0-2.1768-0.9258-2.2441-2.124
	c-0.0801-1.417-0.208-2.8804-0.3789-4.3486c-0.1445-1.2344,0.7393-2.3516,1.9727-2.4961
	C425.2808,161.965,426.395,162.8512,426.5396,164.0851z M419.3169,204.6203c-0.6279,1.3809-1.2969,2.7734-1.9883,4.1406
	c-0.3955,0.7842-1.1875,1.2363-2.0098,1.2363c-0.3408,0-0.6875-0.0781-1.0127-0.2432c-1.1094-0.5605-1.5537-1.9141-0.9932-3.0225
	c0.6631-1.3135,1.3057-2.6504,1.9082-3.9746c0.5146-1.1318,1.8525-1.6309,2.9795-1.1162
	C419.3315,202.1554,419.8315,203.4894,419.3169,204.6203z M426.8208,178.0187c-0.1318,1.5107-0.3281,3.0693-0.583,4.6309
	c-0.1807,1.1035-1.1348,1.8877-2.2178,1.8877c-0.1211,0-0.2422-0.0098-0.3652-0.0293c-1.2266-0.2002-2.0586-1.3564-1.8584-2.583
	c0.2373-1.4521,0.4189-2.8984,0.542-4.2988c0.1084-1.2383,1.1992-2.1523,2.4375-2.0449
	C426.0132,175.6896,426.9292,176.7804,426.8208,178.0187z M424.1646,191.6876c-0.4219,1.4434-0.8975,2.9229-1.4121,4.3955
	c-0.3242,0.9277-1.1943,1.5088-2.124,1.5088c-0.2461,0-0.4971-0.041-0.7422-0.127c-1.1738-0.4102-1.792-1.6934-1.3818-2.8662
	c0.4893-1.4004,0.9414-2.8047,1.3418-4.1748c0.3486-1.1924,1.5967-1.8818,2.791-1.5273
	C423.8296,189.2453,424.5142,190.4943,424.1646,191.6876z M427.6451,146.0072l-13.65,3.27l1.92-22.12L427.6451,146.0072z
	 M181.3252,254.7169c0,1.2422-1.0073,2.25-2.25,2.25h-4.5c-1.2427,0-2.25-1.0078-2.25-2.25s1.0073-2.25,2.25-2.25h4.5
	C180.3179,252.4669,181.3252,253.4747,181.3252,254.7169z M154.3252,254.7169c0,1.2422-1.0073,2.25-2.25,2.25h-4.5
	c-1.2427,0-2.25-1.0078-2.25-2.25s1.0073-2.25,2.25-2.25h4.5C153.3179,252.4669,154.3252,253.4747,154.3252,254.7169z
	 M167.8252,254.7169c0,1.2422-1.0073,2.25-2.25,2.25h-4.5c-1.2427,0-2.25-1.0078-2.25-2.25s1.0073-2.25,2.25-2.25h4.5
	C166.8179,252.4669,167.8252,253.4747,167.8252,254.7169z M127.3252,254.7169c0,1.2422-1.0073,2.25-2.25,2.25h-2.7501v4.7702
	l-21.06-7.02l21.06-7.02v4.7698h2.7501C126.3179,252.4669,127.3252,253.4747,127.3252,254.7169z M140.8252,254.7169
	c0,1.2422-1.0073,2.25-2.25,2.25h-4.5c-1.2427,0-2.25-1.0078-2.25-2.25s1.0073-2.25,2.25-2.25h4.5
	C139.8179,252.4669,140.8252,253.4747,140.8252,254.7169z M248.8252,254.7169c0,1.2422-1.0073,2.25-2.25,2.25h-4.5
	c-1.2427,0-2.25-1.0078-2.25-2.25s1.0073-2.25,2.25-2.25h4.5C247.8179,252.4669,248.8252,253.4747,248.8252,254.7169z
	 M194.8252,254.7169c0,1.2422-1.0073,2.25-2.25,2.25h-4.5c-1.2427,0-2.25-1.0078-2.25-2.25s1.0073-2.25,2.25-2.25h4.5
	C193.8179,252.4669,194.8252,253.4747,194.8252,254.7169z M262.3247,254.7169c0,1.2422-1.0078,2.25-2.25,2.25h-4.5
	c-1.2422,0-2.25-1.0078-2.25-2.25s1.0078-2.25,2.25-2.25h4.5C261.3169,252.4669,262.3247,253.4747,262.3247,254.7169z
	 M235.3252,254.7169c0,1.2422-1.0073,2.25-2.25,2.25h-4.5c-1.2427,0-2.25-1.0078-2.25-2.25s1.0073-2.25,2.25-2.25h4.5
	C234.3179,252.4669,235.3252,253.4747,235.3252,254.7169z M221.8252,254.7169c0,1.2422-1.0073,2.25-2.25,2.25h-4.5
	c-1.2427,0-2.25-1.0078-2.25-2.25s1.0073-2.25,2.25-2.25h4.5C220.8179,252.4669,221.8252,253.4747,221.8252,254.7169z
	 M208.3252,254.7169c0,1.2422-1.0073,2.25-2.25,2.25h-4.5c-1.2427,0-2.25-1.0078-2.25-2.25s1.0073-2.25,2.25-2.25h4.5
	C207.3179,252.4669,208.3252,253.4747,208.3252,254.7169z M264.4551,247.6972l21.06,7.02l-21.06,7.02V247.6972z"/>
</svg>
