<?xml version="1.0" encoding="utf-8"?>
<!-- Generator: Adobe Illustrator 22.1.0, SVG Export Plug-In . SVG Version: 6.00 Build 0)  -->
<svg version="1.1" id="Ebene_1" xmlns="http://www.w3.org/2000/svg" xmlns:xlink="http://www.w3.org/1999/xlink" x="0px" y="0px"
	 viewBox="0 0 972 375" style="enable-background:new 0 0 972 375;" xml:space="preserve">
<style type="text/css">
	.st0{fill:#005A9A;}
	.st1{fill:#95C230;}
</style>
<path class="st0" d="M169.0044,119.4575V85.0393h16.3203v85.0394h-16.3203v-34.3009h-29.1441v34.3009h-16.3105V85.0393h16.3105
	v34.4182C139.8603,119.4575,169.0044,119.4575,169.0044,119.4575z M257.218,85.0393v16.3106h-37.3091v18.1076h32.3866v16.3203
	h-32.3866v17.9904h37.3091v16.3105h-45.5816c-0.7227,0-1.4455-0.2442-1.924-0.8399l-5.2741-5.2741
	c-0.5958-0.4786-0.8399-1.2013-0.8399-1.9241v-68.973c0-0.7129,0.2441-1.4357,0.8399-1.9143l5.2741-5.274
	c0.4785-0.4884,1.2013-0.84,1.924-0.84C211.6364,85.0393,257.218,85.0393,257.218,85.0393z M282.4456,170.0787
	c-0.7227,0-1.4455-0.2442-1.9241-0.8399l-5.274-5.2741c-0.6056-0.4786-0.84-1.2013-0.84-1.9241V85.0393h16.3106v68.7289h35.5022
	v16.3105L282.4456,170.0787L282.4456,170.0787z M413.8088,85.0393v85.0394h-16.3105v-47.0173l-13.3121,27.8256
	c-0.4786,0.9571-1.4358,1.5627-2.4027,1.5627h-9.5909c-1.0842,0-2.0413-0.6056-2.5199-1.5627l-13.3121-27.8256v47.0173h-16.3105
	V85.0393h16.3105l20.6274,43.179l20.5103-43.179C397.4983,85.0393,413.8088,85.0393,413.8088,85.0393z M476.4725,119.4575V85.0393
	h16.3203v85.0394h-16.3203v-34.3009h-29.1441v34.3009h-16.3105V85.0393h16.3105v34.4182
	C447.3284,119.4575,476.4725,119.4575,476.4725,119.4575z M558.3279,89.1121l8.5166,8.3994
	c2.5198,2.5199,3.9556,5.9968,3.9556,9.591v40.9033c0,3.6039-1.4358,7.0809-3.9556,9.6007l-8.5166,8.5167
	c-2.5198,2.5198-5.9968,3.9555-9.6008,3.9555h-19.0647c-3.604,0-7.1981-1.3185-9.718-3.9555l-8.3994-8.5167
	c-2.5198-2.5198-3.9555-5.9968-3.9555-9.6007v-40.9033c0-3.5942,1.4357-7.0711,3.9555-9.591l8.3994-8.3994
	c2.6371-2.637,6.114-4.0728,9.718-4.0728h19.0647C552.3311,85.0393,555.6909,86.5923,558.3279,89.1121z M554.4895,145.8473v-36.4594
	c0-0.7227-0.3613-1.4455-0.8399-1.924l-5.1569-5.2741c-0.6055-0.4786-1.3185-0.8399-2.0412-0.8399h-14.6307
	c-0.7227,0-1.3185,0.3613-1.924,0.8399l-5.1569,5.2741c-0.5958,0.4785-0.8399,1.2013-0.8399,1.924v36.4594
	c0,0.7228,0.2441,1.3185,0.8399,1.9241l5.1569,5.1568c0.6055,0.5958,1.2013,0.84,1.924,0.84h14.6307
	c0.7227,0,1.4357-0.2442,2.0412-0.84l5.1569-5.1568C554.1282,147.1658,554.4895,146.5701,554.4895,145.8473z M593.2734,170.0787
	c-0.7227,0-1.4455-0.2442-1.924-0.8399l-5.2741-5.2741c-0.6055-0.4786-0.8399-1.2013-0.8399-1.9241V85.0393h16.3105v68.7289h35.5022
	v16.3105L593.2734,170.0787L593.2734,170.0787z M635.8761,101.3499V85.0393h61.4136v16.3106h-22.5515v68.7288h-16.3106v-68.7288
	C658.4276,101.3499,635.8761,101.3499,635.8761,101.3499z M760.4319,85.8793l5.2741,5.274
	c0.4785,0.4786,0.8399,1.2014,0.8399,1.9143v4.1998l-35.7464,56.5008h35.2678v16.3105h-48.6971
	c-0.7228,0-1.4455-0.2442-1.9241-0.8399l-5.2741-5.2741c-0.4785-0.4786-0.8399-1.2013-0.8399-1.9241v-4.9126L744.6,101.3499
	h-35.7465V85.0393h49.6543C759.2306,85.0393,759.9533,85.3909,760.4319,85.8793z"/>
<path class="st1" d="M146.1395,214.7494H140.91c-0.1192-1.4864-0.5635-2.6914-1.333-3.6143c-1.128-1.333-2.7598-2-4.8965-2
	c-1.5205,0-2.8027,0.3682-3.8447,1.1025c-1.2305,0.8887-1.8457,2.0254-1.8457,3.4092c0,1.2823,0.6494,2.3252,1.9482,3.128
	c0.8027,0.496,2.7852,1.4101,5.9473,2.7431c2.7168,1.1445,4.5713,2.0078,5.5625,2.5889c3.1279,1.8633,4.6914,4.5889,4.6914,8.1777
	c0,3.4346-1.2988,6.126-3.8965,8.0752c-2.0684,1.5547-4.7676,2.332-8.1006,2.332c-4.8877,0-8.4424-1.5888-10.6641-4.7675
	c-1.248-1.7774-1.9394-4.1787-2.0761-7.2032h5.2549c0.1875,2.1875,0.7861,3.8448,1.7949,4.9727
	c1.3496,1.5215,3.2812,2.2812,5.7929,2.2812c1.8458,0,3.375-0.4521,4.5889-1.3583c1.1621-0.8721,1.7432-2.0167,1.7432-3.4346
	c0-1.5039-0.7608-2.7774-2.2813-3.8203c-0.8203-0.5635-2.7353-1.4864-5.7422-2.7686c-3.5722-1.5381-5.9736-2.8711-7.2041-3.999
	c-1.8623-1.7432-2.7939-3.8965-2.7939-6.46c0-3.2461,1.29-5.7588,3.8711-7.5361c2.0849-1.4522,4.5625-2.1797,7.4336-2.1797
	c4.2383,0,7.3916,1.4453,9.459,4.333C145.3963,210.2376,146.0028,212.2376,146.1395,214.7494z M153.9871,205.0599h7.0498
	c4.5635,0,7.835,0.333,9.8184,0.999c2.1699,0.7188,3.8193,2.0684,4.9473,4.0508c0.9394,1.6748,1.4101,3.5889,1.4101,5.7422
	c0,3.1445-0.9482,5.6572-2.8457,7.5371c-1.6748,1.6572-4.1015,2.6143-7.2803,2.8711c-1.4013,0.1016-3.1875,0.1533-5.3574,0.1533
	h-2.333v13.6377h-5.4092V205.0599z M159.3963,221.7484h2.3076c2.9903,0,5.0918-0.1709,6.3057-0.5137
	c1.2646-0.375,2.2129-1.1181,2.8457-2.2295c0.5127-0.8886,0.7686-1.9394,0.7686-3.1533c0-2.666-0.9737-4.4346-2.9219-5.3066
	c-1.2822-0.5635-3.6319-0.8457-7.0498-0.8457h-2.2559L159.3963,221.7484L159.3963,221.7484z M188.2645,240.0511h-5.46v-34.9912h5.46
	V240.0511z M193.6004,205.0599h23.7637v4.6397h-9.2031v30.3515h-5.4082v-30.3515h-9.1524V205.0599z M221.0848,205.0599h22.0459
	v3.794l-17.0215,26.5312h16.5859v4.666h-22.9687v-4.2295l16.8418-26.1728h-15.4834V205.0599z M254.3367,219.5941h14.0479v4.666
	h-14.0479v11.125h15.7657v4.666h-21.1748v-34.9912h20.7129v4.6397h-15.3038V219.5941z M276.4119,205.0599h5.8194l15.4326,26.7373
	v-26.7373h5.1269v34.9912h-5.5888l-15.6377-26.6855v26.6855h-5.1524L276.4119,205.0599L276.4119,205.0599z M317.0467,219.5941
	h14.0479v4.666h-14.0479v15.791h-5.4092v-34.9912h20.7129v4.6397h-15.3037L317.0467,219.5941L317.0467,219.5941z M351.2469,204.4183
	c4.1533,0,7.6143,1.4707,10.3818,4.4102c3.128,3.2978,4.6914,7.8691,4.6914,13.7138c0,5.8448-1.5634,10.4248-4.6914,13.7403
	c-2.7675,2.9394-6.2207,4.4091-10.3554,4.4091c-4.2051,0-7.6826-1.4697-10.4336-4.4091c-3.128-3.3155-4.6914-7.9805-4.6914-13.9961
	c0-2.5801,0.4189-5.1533,1.2558-7.7158c1.1621-3.504,3.2471-6.1866,6.2549-8.0499
	C345.9149,205.1195,348.4442,204.4183,351.2469,204.4183z M351.2469,209.0843c-2.8711,0-5.1006,1.128-6.6904,3.3838
	c-1.8116,2.5635-2.7168,5.8623-2.7168,9.8955c0,4.2725,0.9052,7.6992,2.7168,10.2793c1.5722,2.2559,3.8027,3.3838,6.6904,3.3838
	c2.8711,0,5.0928-1.1279,6.665-3.3838c1.8116-2.5801,2.7178-5.9472,2.7178-10.1006c0-4.2041-0.9062-7.5615-2.7178-10.0742
	C356.2879,210.2123,354.0672,209.0843,351.2469,209.0843z M373.0662,205.0599h7.5371c2.8711,0,5.084,0.1025,6.6387,0.3076
	c2.9229,0.4102,5.1787,1.5469,6.7676,3.4092c1.5039,1.794,2.2559,4.0078,2.2559,6.6397c0,4.6142-2.2217,7.8183-6.6641,9.6132
	l8.6133,15.0215h-6.3838l-7.9717-14.0996h-5.3838v14.0996h-5.4092L373.0662,205.0599L373.0662,205.0599z M378.4754,221.2865h2.4356
	c3.0586,0,5.1777-0.2139,6.3574-0.6407c1.1621-0.4101,2.042-1.1279,2.6396-2.1533c0.5137-0.8886,0.7696-1.9316,0.7696-3.1279
	c0-2.3066-0.9141-3.9043-2.7432-4.7939c-0.9062-0.461-2.1699-0.7344-3.7939-0.8204c-0.6319-0.0332-1.8028-0.0507-3.5118-0.0507
	h-2.1533L378.4754,221.2865L378.4754,221.2865z M425.0311,214.7494h-5.2295c-0.1192-1.4864-0.5635-2.6914-1.333-3.6143
	c-1.1279-1.333-2.7598-2-4.8965-2c-1.5205,0-2.8027,0.3682-3.8447,1.1025c-1.2305,0.8887-1.8457,2.0254-1.8457,3.4092
	c0,1.2823,0.6494,2.3252,1.9482,3.128c0.8027,0.496,2.7852,1.4101,5.9473,2.7431c2.7168,1.1445,4.5713,2.0078,5.5625,2.5889
	c3.1279,1.8633,4.6914,4.5889,4.6914,8.1777c0,3.4346-1.2988,6.126-3.8965,8.0752c-2.0684,1.5547-4.7676,2.332-8.1006,2.332
	c-4.8877,0-8.4424-1.5888-10.6641-4.7675c-1.248-1.7774-1.9394-4.1787-2.0761-7.2032h5.2549
	c0.1875,2.1875,0.7861,3.8448,1.7949,4.9727c1.3496,1.5215,3.2812,2.2812,5.7929,2.2812c1.8458,0,3.375-0.4521,4.5889-1.3583
	c1.1621-0.8721,1.7432-2.0167,1.7432-3.4346c0-1.5039-0.7608-2.7774-2.2813-3.8203c-0.8203-0.5635-2.7353-1.4864-5.7422-2.7686
	c-3.5722-1.5381-5.9736-2.8711-7.2041-3.999c-1.8623-1.7432-2.7939-3.8965-2.7939-6.46c0-3.2461,1.29-5.7588,3.8711-7.5361
	c2.085-1.4522,4.5625-2.1797,7.4336-2.1797c4.2383,0,7.3916,1.4453,9.459,4.333
	C424.2879,210.2376,424.8944,212.2376,425.0311,214.7494z M457.7459,215.6468h-4.7939c-0.8379-4.3408-3.2393-6.5117-7.2031-6.5117
	c-2.7862,0-4.9903,1.1377-6.6143,3.4102c-1.7598,2.5117-2.6397,5.8613-2.6397,10.0488c0,4.2041,0.9131,7.5713,2.7422,10.0996
	c1.5899,2.1885,3.7774,3.2812,6.5625,3.2812c4.4952,0,7.0069-2.8027,7.5371-8.4082h4.9219
	c-0.1885,3.1446-0.8633,5.7081-2.0254,7.6905c-2.1191,3.624-5.5283,5.4345-10.2285,5.4345c-4.2207,0-7.6904-1.4003-10.4072-4.2041
	c-3.1963-3.2812-4.794-7.8955-4.794-13.8427c0-6.4424,1.7852-11.3047,5.3575-14.586c2.6494-2.4267,5.8535-3.6406,9.6132-3.6406
	c2.375,0,4.4942,0.5137,6.3575,1.5391C455.4471,207.7513,457.3182,210.9808,457.7459,215.6468z M469.9764,219.5433h15.0986v-14.4834
	h5.4092v34.9912h-5.4092v-16.0215h-15.0986v16.0215h-5.4092v-34.9912h5.4092V219.5433z M498.9217,205.0599h5.4092v20.3281
	c0,1.7774,0.0342,3.0244,0.1025,3.7432c0.2051,2.4609,1.0166,4.2207,2.4356,5.2803c1.3838,1.0429,3.1269,1.5634,5.2295,1.5634
	c2.1015,0,3.8359-0.5205,5.2041-1.5634c1.4179-1.0596,2.2295-2.8194,2.4345-5.2803c0.0684-0.7188,0.1026-1.9658,0.1026-3.7432
	v-20.3281h5.4092v20.4053c0,2.6494-0.086,4.5547-0.2569,5.7168c-0.376,2.6142-1.5039,4.7334-3.3828,6.3574
	c-2.4277,2.1016-5.5977,3.1523-9.5107,3.1523c-3.9317,0-7.1104-1.0507-9.5362-3.1523c-1.8633-1.6064-2.9912-3.7256-3.3838-6.3574
	c-0.1709-1.1455-0.2568-3.0508-0.2568-5.7168L498.9217,205.0599L498.9217,205.0599z M533.6864,205.0599h5.8193l15.4326,26.7373
	v-26.7373h5.127v34.9912h-5.5889l-15.6377-26.6855v26.6855h-5.1523V205.0599z M583.0623,222.3119h11.6895v14.4834
	c-3.6913,2.5986-7.7842,3.8964-12.2793,3.8964c-4.5459,0-8.1943-1.4355-10.9453-4.3066c-1.5733-1.623-2.7266-3.5801-3.461-5.8701
	c-0.8203-2.5293-1.2304-5.1865-1.2304-7.9727c0-5.9814,1.5722-10.6035,4.7168-13.8681c2.7343-2.8369,6.2119-4.2559,10.4336-4.2559
	c2.4609,0,4.6738,0.5303,6.6386,1.5899c3.3496,1.7949,5.2305,4.9824,5.6407,9.5615h-4.794
	c-0.7861-4.2891-3.2558-6.4346-7.4092-6.4346c-2.8369,0-5.0332,1-6.5879,3c-1.9648,2.4951-2.9472,5.9639-2.9472,10.4072
	c0,4.461,1.0078,7.9385,3.0244,10.4336c1.6064,1.999,3.9219,2.999,6.9473,2.999c2.6826,0,5.2294-0.7597,7.6386-2.2812v-7.127
	h-7.0752L583.0623,222.3119L583.0623,222.3119z M620.9588,219.5941h14.0479v4.666h-14.0479v15.791h-5.4092v-34.9912h20.7129v4.6397
	h-15.3037V219.5941z M641.7264,205.0599h5.4092v20.3281c0,1.7774,0.0342,3.0244,0.1025,3.7432
	c0.2051,2.4609,1.0166,4.2207,2.4356,5.2803c1.3837,1.0429,3.1269,1.5634,5.2295,1.5634c2.1015,0,3.8359-0.5205,5.2041-1.5634
	c1.4179-1.0596,2.2294-2.8194,2.4345-5.2803c0.0684-0.7188,0.1026-1.9658,0.1026-3.7432v-20.3281h5.4091v20.4053
	c0,2.6494-0.0859,4.5547-0.2568,5.7168c-0.376,2.6142-1.5039,4.7334-3.3828,6.3574c-2.4277,2.1016-5.5977,3.1523-9.5107,3.1523
	c-3.9317,0-7.1104-1.0507-9.5362-3.1523c-1.8633-1.6064-2.9912-3.7256-3.3838-6.3574c-0.1709-1.1455-0.2568-3.0508-0.2568-5.7168
	L641.7264,205.0599L641.7264,205.0599z M650.1346,194.5746c0.9228,0,1.7266,0.3339,2.4102,1c0.666,0.667,1,1.4785,1,2.4355
	s-0.334,1.7773-1,2.4609c-0.6836,0.6661-1.4961,1-2.4356,1c-0.957,0-1.7685-0.3339-2.4355-1
	c-0.6836-0.6836-1.0254-1.4951-1.0254-2.4355c0-0.9736,0.3418-1.7939,1.0254-2.4609
	C648.3573,194.9085,649.1776,194.5746,650.1346,194.5746z M659.7225,194.5746c0.9229,0,1.7168,0.3339,2.3839,1
	c0.6836,0.6836,1.0254,1.4961,1.0254,2.4355c0,0.957-0.3418,1.7773-1.0254,2.4609c-0.6671,0.6661-1.4698,1-2.4092,1
	c-0.958,0-1.7783-0.3339-2.4609-1c-0.667-0.6836-1-1.4951-1-2.4355c0-0.9736,0.333-1.7939,1-2.4609
	C657.9364,194.9085,658.7645,194.5746,659.7225,194.5746z M676.4901,205.0599h7.5371c2.8711,0,5.084,0.1025,6.6385,0.3076
	c2.9229,0.4102,5.1788,1.5469,6.7676,3.4092c1.5039,1.794,2.2559,4.0078,2.2559,6.6397c0,4.6142-2.2217,7.8183-6.6641,9.6132
	l8.6133,15.0215h-6.3838l-7.9717-14.0996h-5.3839v14.0996h-5.4091v-34.9912H676.4901z M681.8992,221.2865h2.4356
	c3.0586,0,5.1777-0.2139,6.3574-0.6407c1.1621-0.4101,2.042-1.1279,2.6397-2.1533c0.5136-0.8886,0.7695-1.9316,0.7695-3.1279
	c0-2.3066-0.9141-3.9043-2.7432-4.7939c-0.9062-0.461-2.1699-0.7344-3.7939-0.8204c-0.6319-0.0332-1.8028-0.0507-3.5117-0.0507
	h-2.1534V221.2865z M138.7567,272.3119h11.6894v14.4834c-3.6914,2.5986-7.7842,3.8964-12.2793,3.8964
	c-4.5459,0-8.1943-1.4355-10.9453-4.3066c-1.5732-1.623-2.7266-3.5801-3.4609-5.8701c-0.8203-2.5293-1.2305-5.1865-1.2305-7.9727
	c0-5.9814,1.5723-10.6035,4.7168-13.8681c2.7344-2.8369,6.2119-4.2559,10.4336-4.2559c2.4609,0,4.6738,0.5303,6.6387,1.5899
	c3.3496,1.7949,5.2304,4.9824,5.6406,9.5615h-4.794c-0.7861-4.2891-3.2558-6.4346-7.4091-6.4346c-2.8369,0-5.0332,1-6.5879,3
	c-1.9649,2.4951-2.9473,5.9639-2.9473,10.4072c0,4.461,1.0078,7.9385,3.0244,10.4336c1.6065,1.999,3.9219,2.999,6.9473,2.999
	c2.6826,0,5.2295-0.7597,7.6387-2.2812v-7.127h-7.0752V272.3119z M157.9608,255.0599h7.5371c2.8711,0,5.084,0.1025,6.6386,0.3076
	c2.9229,0.4102,5.1788,1.5469,6.7676,3.4092c1.5039,1.794,2.2559,4.0078,2.2559,6.6397c0,4.6142-2.2217,7.8183-6.6641,9.6132
	l8.6133,15.0215h-6.3838l-7.9717-14.0996h-5.3838v14.0996h-5.4091L157.9608,255.0599L157.9608,255.0599z M163.3699,271.2865h2.4356
	c3.0586,0,5.1777-0.2139,6.3574-0.6407c1.1621-0.4101,2.042-1.1279,2.6397-2.1533c0.5136-0.8886,0.7695-1.9316,0.7695-3.1279
	c0-2.3066-0.9141-3.9043-2.7432-4.7939c-0.9062-0.461-2.1699-0.7344-3.7939-0.8204c-0.6318-0.0332-1.8027-0.0507-3.5117-0.0507
	h-2.1534V271.2865z M201.4158,254.4183c4.1534,0,7.6143,1.4707,10.3819,4.4102c3.1279,3.2978,4.6914,7.8691,4.6914,13.7138
	c0,5.8448-1.5635,10.4248-4.6914,13.7403c-2.7676,2.9394-6.2207,4.4091-10.3555,4.4091c-4.2051,0-7.6826-1.4697-10.4336-4.4091
	c-3.1279-3.3155-4.6914-7.9805-4.6914-13.9961c0-2.5801,0.419-5.1533,1.2559-7.7158c1.1621-3.504,3.247-6.1866,6.2549-8.0499
	C196.0838,255.1195,198.6131,254.4183,201.4158,254.4183z M201.4158,259.0843c-2.871,0-5.1005,1.128-6.6904,3.3838
	c-1.8115,2.5635-2.7168,5.8623-2.7168,9.8955c0,4.2725,0.9053,7.6992,2.7168,10.2793c1.5723,2.2559,3.8028,3.3838,6.6904,3.3838
	c2.8711,0,5.0928-1.1279,6.6651-3.3838c1.8115-2.5801,2.7178-5.9472,2.7178-10.1006c0-4.2041-0.9063-7.5615-2.7178-10.0742
	C206.4569,260.2123,204.2362,259.0843,201.4158,259.0843z M244.7674,264.7494h-5.2295c-0.1191-1.4864-0.5635-2.6914-1.333-3.6143
	c-1.1279-1.333-2.7598-2-4.8965-2c-1.5205,0-2.8027,0.3682-3.8447,1.1025c-1.2305,0.8887-1.8457,2.0254-1.8457,3.4092
	c0,1.2823,0.6494,2.3252,1.9482,3.128c0.8028,0.496,2.7852,1.4101,5.9473,2.7431c2.7168,1.1445,4.5713,2.0078,5.5625,2.5889
	c3.1279,1.8633,4.6914,4.5889,4.6914,8.1777c0,3.4346-1.2988,6.126-3.8965,8.0752c-2.0683,1.5547-4.7676,2.332-8.1006,2.332
	c-4.8877,0-8.4423-1.5888-10.664-4.7675c-1.2481-1.7774-1.9395-4.1787-2.0762-7.2032h5.2549
	c0.1875,2.1875,0.7861,3.8448,1.7949,4.9727c1.3496,1.5215,3.2813,2.2812,5.793,2.2812c1.8457,0,3.375-0.4521,4.5888-1.3583
	c1.1622-0.8721,1.7432-2.0167,1.7432-3.4346c0-1.5039-0.7607-2.7774-2.2812-3.8203c-0.8204-0.5635-2.7354-1.4864-5.7422-2.7686
	c-3.5723-1.5381-5.9737-2.8711-7.2041-3.999c-1.8623-1.7432-2.794-3.8965-2.794-6.46c0-3.2461,1.2901-5.7588,3.8711-7.5361
	c2.085-1.4522,4.5625-2.1797,7.4336-2.1797c4.2383,0,7.3916,1.4453,9.459,4.333
	C244.0242,260.2376,244.6307,262.2376,244.7674,264.7494z M274.1483,264.7494h-5.2295c-0.1192-1.4864-0.5635-2.6914-1.333-3.6143
	c-1.128-1.333-2.7598-2-4.8965-2c-1.5205,0-2.8028,0.3682-3.8447,1.1025c-1.2305,0.8887-1.8457,2.0254-1.8457,3.4092
	c0,1.2823,0.6494,2.3252,1.9482,3.128c0.8027,0.496,2.7852,1.4101,5.9473,2.7431c2.7168,1.1445,4.5713,2.0078,5.5625,2.5889
	c3.1279,1.8633,4.6914,4.5889,4.6914,8.1777c0,3.4346-1.2989,6.126-3.8965,8.0752c-2.0684,1.5547-4.7676,2.332-8.1006,2.332
	c-4.8877,0-8.4424-1.5888-10.6641-4.7675c-1.248-1.7774-1.9394-4.1787-2.0761-7.2032h5.2548
	c0.1875,2.1875,0.7862,3.8448,1.795,4.9727c1.3496,1.5215,3.2812,2.2812,5.7929,2.2812c1.8457,0,3.375-0.4521,4.5889-1.3583
	c1.1621-0.8721,1.7432-2.0167,1.7432-3.4346c0-1.5039-0.7608-2.7774-2.2813-3.8203c-0.8203-0.5635-2.7353-1.4864-5.7422-2.7686
	c-3.5722-1.5381-5.9736-2.8711-7.2041-3.999c-1.8623-1.7432-2.7939-3.8965-2.7939-6.46c0-3.2461,1.29-5.7588,3.8711-7.5361
	c2.0849-1.4522,4.5625-2.1797,7.4336-2.1797c4.2383,0,7.3916,1.4453,9.459,4.333
	C273.4051,260.2376,274.0115,262.2376,274.1483,264.7494z M286.9862,269.5941h14.0478v4.666h-14.0478v11.125h15.7656v4.666H281.577
	v-34.9912h20.7129v4.6397h-15.3037L286.9862,269.5941L286.9862,269.5941z M327.7528,269.5433h15.0986v-14.4834h5.4092v34.9912
	h-5.4092v-16.0215h-15.0986v16.0215h-5.4092v-34.9912h5.4092V269.5433z M362.5164,269.5941h14.0479v4.666h-14.0479v11.125h15.7657
	v4.666h-21.1748v-34.9912h20.7128v4.6397h-15.3037L362.5164,269.5941L362.5164,269.5941z M384.5916,255.0599h7.5371
	c2.8711,0,5.084,0.1025,6.6387,0.3076c2.9229,0.4102,5.1787,1.5469,6.7676,3.4092c1.5039,1.794,2.2558,4.0078,2.2558,6.6397
	c0,4.6142-2.2216,7.8183-6.664,9.6132l8.6133,15.0215h-6.3838l-7.9717-14.0996h-5.3838v14.0996h-5.4092L384.5916,255.0599
	L384.5916,255.0599z M390.0008,271.2865h2.4356c3.0585,0,5.1777-0.2139,6.3574-0.6407c1.1621-0.4101,2.042-1.1279,2.6396-2.1533
	c0.5137-0.8886,0.7696-1.9316,0.7696-3.1279c0-2.3066-0.9141-3.9043-2.7432-4.7939c-0.9063-0.461-2.1699-0.7344-3.794-0.8204
	c-0.6318-0.0332-1.8027-0.0507-3.5117-0.0507h-2.1533V271.2865z M423.9588,254.9574h5.2549l11.9717,35.0937h-5.6143l-2.5888-8.2031
	H420.242l-2.6406,8.2031h-5.5625L423.9588,254.9574z M431.5467,277.182l-4.9473-15.7393l-4.9482,15.7393H431.5467z
	 M444.5897,255.0599h5.4092v20.3281c0,1.7774,0.0341,3.0244,0.1025,3.7432c0.2051,2.4609,1.0166,4.2207,2.4355,5.2803
	c1.3838,1.0429,3.127,1.5634,5.2295,1.5634c2.1016,0,3.836-0.5205,5.2041-1.5634c1.418-1.0596,2.2295-2.8194,2.4346-5.2803
	c0.0684-0.7188,0.1025-1.9658,0.1025-3.7432v-20.3281h5.4092v20.4053c0,2.6494-0.0859,4.5547-0.2568,5.7168
	c-0.376,2.6142-1.5039,4.7334-3.3828,6.3574c-2.4278,2.1016-5.5977,3.1523-9.5108,3.1523c-3.9316,0-7.1103-1.0507-9.5361-3.1523
	c-1.8633-1.6064-2.9912-3.7256-3.3838-6.3574c-0.1709-1.1455-0.2568-3.0508-0.2568-5.7168V255.0599z M500.8865,264.7494h-5.2294
	c-0.1192-1.4864-0.5635-2.6914-1.3331-3.6143c-1.1279-1.333-2.7597-2-4.8964-2c-1.5205,0-2.8028,0.3682-3.8448,1.1025
	c-1.2304,0.8887-1.8457,2.0254-1.8457,3.4092c0,1.2823,0.6494,2.3252,1.9483,3.128c0.8027,0.496,2.7851,1.4101,5.9472,2.7431
	c2.7168,1.1445,4.5713,2.0078,5.5625,2.5889c3.128,1.8633,4.6914,4.5889,4.6914,8.1777c0,3.4346-1.2988,6.126-3.8964,8.0752
	c-2.0684,1.5547-4.7676,2.332-8.1006,2.332c-4.8877,0-8.4424-1.5888-10.6641-4.7675c-1.248-1.7774-1.9394-4.1787-2.0762-7.2032
	h5.2549c0.1875,2.1875,0.7862,3.8448,1.7949,4.9727c1.3497,1.5215,3.2813,2.2812,5.793,2.2812c1.8457,0,3.375-0.4521,4.5889-1.3583
	c1.1621-0.8721,1.7431-2.0167,1.7431-3.4346c0-1.5039-0.7607-2.7774-2.2812-3.8203c-0.8203-0.5635-2.7354-1.4864-5.7422-2.7686
	c-3.5723-1.5381-5.9736-2.8711-7.2041-3.999c-1.8623-1.7432-2.7939-3.8965-2.7939-6.46c0-3.2461,1.29-5.7588,3.8711-7.5361
	c2.0849-1.4522,4.5625-2.1797,7.4336-2.1797c4.2382,0,7.3916,1.4453,9.4589,4.333
	C500.1434,260.2376,500.7498,262.2376,500.8865,264.7494z M514.1444,269.5941h14.0478v4.666h-14.0478v15.791h-5.4092v-34.9912
	h20.7129v4.6397h-15.3037V269.5941z M548.3446,254.4183c4.1533,0,7.6142,1.4707,10.3818,4.4102
	c3.1279,3.2978,4.6914,7.8691,4.6914,13.7138c0,5.8448-1.5635,10.4248-4.6914,13.7403c-2.7676,2.9394-6.2207,4.4091-10.3555,4.4091
	c-4.2051,0-7.6826-1.4697-10.4336-4.4091c-3.1279-3.3155-4.6914-7.9805-4.6914-13.9961c0-2.5801,0.419-5.1533,1.2559-7.7158
	c1.1621-3.504,3.2471-6.1866,6.2549-8.0499C543.0125,255.1195,545.5418,254.4183,548.3446,254.4183z M548.3446,259.0843
	c-2.8711,0-5.1006,1.128-6.6905,3.3838c-1.8115,2.5635-2.7168,5.8623-2.7168,9.8955c0,4.2725,0.9053,7.6992,2.7168,10.2793
	c1.5723,2.2559,3.8028,3.3838,6.6905,3.3838c2.8711,0,5.0927-1.1279,6.665-3.3838c1.8115-2.5801,2.7178-5.9472,2.7178-10.1006
	c0-4.2041-0.9063-7.5615-2.7178-10.0742C553.3856,260.2123,551.1649,259.0843,548.3446,259.0843z M570.1629,255.0599H577.7
	c2.8711,0,5.084,0.1025,6.6387,0.3076c2.9228,0.4102,5.1787,1.5469,6.7676,3.4092c1.5039,1.794,2.2558,4.0078,2.2558,6.6397
	c0,4.6142-2.2216,7.8183-6.664,9.6132l8.6133,15.0215h-6.3838l-7.9717-14.0996h-5.3838v14.0996h-5.4092V255.0599z
	 M575.5721,271.2865h2.4355c3.0586,0,5.1778-0.2139,6.3575-0.6407c1.1621-0.4101,2.042-1.1279,2.6396-2.1533
	c0.5137-0.8886,0.7695-1.9316,0.7695-3.1279c0-2.3066-0.9139-3.9043-2.743-4.7939c-0.9063-0.461-2.1699-0.7344-3.794-0.8204
	c-0.6318-0.0332-1.8027-0.0507-3.5117-0.0507h-2.1533V271.2865z M600.5955,255.0599h7.1016c2.8359,0,5.1602,0.1367,6.9727,0.4102
	c3.7421,0.581,6.7412,2.333,8.997,5.2548c2.4951,3.2305,3.7432,7.169,3.7432,11.8174c0,4.7686-1.2735,8.7764-3.8203,12.0225
	c-2.3067,2.9746-5.4512,4.7002-9.4336,5.1787c-1.6231,0.2051-4.0244,0.3076-7.2031,0.3076h-6.3575L600.5955,255.0599
	L600.5955,255.0599z M606.0047,285.3851h2.8193c2.1026,0,3.7344-0.0928,4.8965-0.2812c2.6494-0.462,4.6407-1.7862,5.9727-3.9737
	c1.4189-2.3408,2.1279-5.2207,2.1279-8.6386c0-3.503-0.7861-6.4092-2.3584-8.7159c-1.4189-2.1025-3.4345-3.3584-6.0498-3.7685
	c-1.1787-0.2051-3.1445-0.3076-5.8955-0.3076h-1.5127V285.3851z M639.5897,269.5941h14.0478v4.666h-14.0478v11.125h15.7656v4.666
	h-21.1748v-34.9912h20.7129v4.6397h-15.3036v9.8945H639.5897z M661.6649,255.0599h7.5371c2.8711,0,5.084,0.1025,6.6387,0.3076
	c2.9228,0.4102,5.1787,1.5469,6.7675,3.4092c1.5039,1.794,2.2559,4.0078,2.2559,6.6397c0,4.6142-2.2217,7.8183-6.6641,9.6132
	l8.6133,15.0215h-6.3838l-7.9717-14.0996h-5.3839v14.0996h-5.4091v-34.9912H661.6649z M667.074,271.2865h2.4356
	c3.0586,0,5.1777-0.2139,6.3574-0.6407c1.1621-0.4101,2.042-1.1279,2.6397-2.1533c0.5136-0.8886,0.7695-1.9316,0.7695-3.1279
	c0-2.3066-0.9141-3.9043-2.7432-4.7939c-0.9063-0.461-2.1699-0.7344-3.7939-0.8204c-0.6318-0.0332-1.8027-0.0507-3.5117-0.0507
	h-2.1534V271.2865z M691.0037,255.0599h5.4092v20.3281c0,1.7774,0.0342,3.0244,0.1026,3.7432
	c0.205,2.4609,1.0166,4.2207,2.4355,5.2803c1.3838,1.0429,3.127,1.5634,5.2295,1.5634c2.1016,0,3.8359-0.5205,5.2041-1.5634
	c1.418-1.0596,2.2295-2.8194,2.4346-5.2803c0.0683-0.7188,0.1025-1.9658,0.1025-3.7432v-20.3281h5.4092v20.4053
	c0,2.6494-0.086,4.5547-0.2569,5.7168c-0.3759,2.6142-1.5038,4.7334-3.3828,6.3574c-2.4277,2.1016-5.5976,3.1523-9.5107,3.1523
	c-3.9316,0-7.1104-1.0507-9.5361-3.1523c-1.8633-1.6064-2.9912-3.7256-3.3838-6.3574c-0.1709-1.1455-0.2569-3.0508-0.2569-5.7168
	L691.0037,255.0599L691.0037,255.0599z M725.3485,255.0599h5.8193l15.4326,26.7373v-26.7373h5.127v34.9912h-5.5889l-15.6377-26.6855
	v26.6855h-5.1523V255.0599z M774.7244,272.3119h11.6895v14.4834c-3.6914,2.5986-7.7842,3.8964-12.2793,3.8964
	c-4.5459,0-8.1943-1.4355-10.9453-4.3066c-1.5732-1.623-2.7266-3.5801-3.461-5.8701c-0.8203-2.5293-1.2303-5.1865-1.2303-7.9727
	c0-5.9814,1.5722-10.6035,4.7168-13.8681c2.7343-2.8369,6.2119-4.2559,10.4336-4.2559c2.4609,0,4.6738,0.5303,6.6386,1.5899
	c3.3495,1.7949,5.2305,4.9824,5.6407,9.5615h-4.794c-0.7861-4.2891-3.2558-6.4346-7.4092-6.4346c-2.8369,0-5.0332,1-6.588,3
	c-1.9648,2.4951-2.9472,5.9639-2.9472,10.4072c0,4.461,1.0078,7.9385,3.0244,10.4336c1.6064,1.999,3.9219,2.999,6.9473,2.999
	c2.6826,0,5.2295-0.7597,7.6386-2.2812v-7.127h-7.0752L774.7244,272.3119L774.7244,272.3119z M799.3377,269.5941h14.0479v4.666
	h-14.0479v11.125h15.7656v4.666h-21.1747v-34.9912h20.7129v4.6397h-15.3037v9.8945H799.3377z M821.4129,255.0599h5.8194
	l15.4326,26.7373v-26.7373h5.1269v34.9912h-5.5888l-15.6377-26.6855v26.6855h-5.1524V255.0599z"/>
</svg>
